<svg width="324" height="330" viewBox="0 0 324 330" fill="none" xmlns="http://www.w3.org/2000/svg">
<g clip-path="url(#clip0_16_87)">
<path d="M80.5245 188.248C80.5245 185.574 78.3953 183.405 75.7691 183.405H19.9726C17.3464 183.405 15.2172 185.574 15.2172 188.248C15.2172 190.923 17.3464 193.092 19.9726 193.092H75.7691C78.3953 193.092 80.5245 190.923 80.5245 188.248Z" fill="#E73434"/>
<path d="M30.1174 245.401C28.862 245.401 27.6383 245.918 26.7569 246.822C25.8693 247.72 25.362 248.972 25.362 250.245C25.362 251.517 25.8693 252.77 26.7569 253.667C27.6383 254.571 28.862 255.088 30.1174 255.088C31.3665 255.088 32.5966 254.571 33.4779 253.667C34.3656 252.77 34.8728 251.517 34.8728 250.245C34.8728 248.972 34.3656 247.72 33.4779 246.822C32.5966 245.918 31.3665 245.401 30.1174 245.401Z" fill="#E73434"/>
<path d="M167.072 255.088C168.321 255.088 169.552 254.571 170.433 253.667C171.321 252.77 171.828 251.517 171.828 250.245C171.828 248.972 171.321 247.72 170.433 246.822C169.552 245.918 168.328 245.401 167.072 245.401C165.817 245.401 164.593 245.918 163.712 246.822C162.824 247.72 162.317 248.972 162.317 250.245C162.317 251.517 162.824 252.77 163.712 253.667C164.593 254.571 165.823 255.088 167.072 255.088Z" fill="#E73434"/>
<path d="M45.6517 250.245C45.6517 252.919 47.7808 255.088 50.4071 255.088H146.783C149.409 255.088 151.538 252.919 151.538 250.245C151.538 247.57 149.409 245.401 146.783 245.401H50.4071C47.7808 245.401 45.6517 247.57 45.6517 250.245Z" fill="#E73434"/>
<path d="M304.027 59.4128C301.515 59.4128 299.112 59.892 296.896 60.758L149.008 103.604C147.539 104.029 146.124 104.598 144.771 105.28C144.69 105.318 144.609 105.358 144.531 105.401C139.785 107.859 135.871 111.818 133.459 116.732L118.482 147.241H96.0587C90.6395 147.241 86.2309 151.731 86.2309 157.25V167.906H75.4521V154.224C75.4521 151.55 74.43 149.037 72.5735 147.146L68.9866 143.492C67.1295 141.601 64.1184 141.601 62.2619 143.492C60.4048 145.384 60.4048 148.451 62.2619 150.342L65.8487 153.995C65.9083 154.056 65.9413 154.137 65.9413 154.224V167.906H9.82779C4.40856 167.906 0 172.396 0 177.916V208.914C0 214.433 4.40856 218.924 9.82779 218.924H71.0137V229.902H30.1174C19.1046 229.902 10.1448 239.028 10.1448 250.245C10.1448 261.461 19.1046 270.587 30.1174 270.587H167.072C178.085 270.587 187.045 261.461 187.045 250.245C187.045 239.028 178.085 229.902 167.072 229.902H126.176V218.924H151.855C154.481 218.924 156.611 216.755 156.611 214.08V183.96L168.126 152.683C169.78 148.192 173.291 144.746 177.759 143.229L287.011 106.137L299.039 212.311L266.551 245.401H258.376C255.75 245.401 253.62 247.57 253.62 250.245C253.62 252.919 255.75 255.088 258.376 255.088H309.1C317.316 255.088 324 248.28 324 239.912V198.581V79.7553C324 68.5385 315.04 59.4128 304.027 59.4128ZM314.489 79.7553C314.489 85.6307 309.796 90.4109 304.027 90.4109C299.136 90.4109 295.03 86.9688 293.89 82.3417L293.575 79.5616C293.652 75.2096 296.298 71.4885 300.035 69.9102C300.161 69.8682 300.285 69.8237 300.404 69.7726C301.535 69.3451 302.752 69.0997 304.027 69.0997C309.796 69.0997 314.489 73.8799 314.489 79.7553ZM284.055 79.7902C284.055 79.8121 284.057 79.8341 284.057 79.8561C284.059 80.1828 284.067 80.5083 284.083 80.8312L229.631 90.3166L284.779 74.3397C284.31 76.0652 284.055 77.8799 284.055 79.7553C284.055 79.7669 284.055 79.7786 284.055 79.7902ZM147.1 191.592L126.111 183.576C120.082 181.273 116.031 175.319 116.031 168.761V156.928H121.4C121.406 156.928 121.411 156.928 121.417 156.928C121.421 156.928 121.426 156.928 121.43 156.928H130.742C135.252 156.928 139.241 159.856 140.667 164.213L147.1 183.868V191.592ZM9.51076 208.914V177.916C9.51076 177.738 9.65279 177.593 9.82779 177.593H86.2309V209.237H9.82779C9.65279 209.237 9.51076 209.092 9.51076 208.914ZM177.534 250.245C177.534 256.12 172.841 260.9 167.072 260.9H30.1174C24.3488 260.9 19.6556 256.12 19.6556 250.245C19.6556 244.369 24.3488 239.589 30.1174 239.589H167.072C172.841 239.589 177.534 244.369 177.534 250.245ZM116.665 229.902H80.5245V218.924H90.9863H116.665V229.902ZM95.7417 209.237V157.25C95.7417 157.072 95.8837 156.928 96.0587 156.928H106.521V168.761C106.521 179.335 113.051 188.933 122.772 192.646L147.1 201.938V209.237H95.7417ZM174.751 134.039C167.548 136.485 161.887 142.041 159.221 149.282L152.119 168.572L149.69 161.15C146.967 152.831 139.353 147.241 130.743 147.241H129.116L141.967 121.063C143.377 118.19 145.616 115.844 148.333 114.307L285.236 90.458L285.898 96.3037L174.751 134.039ZM295.69 98.234C298.23 99.4274 301.052 100.098 304.027 100.098C307.861 100.098 311.445 98.9896 314.489 97.0748V196.575L307.624 203.568L295.69 98.234ZM314.489 239.912C314.489 242.939 312.072 245.401 309.1 245.401H280.001L314.489 210.274V239.912Z" fill="#E73434"/>
</g>
<defs>
<clipPath id="clip0_16_87">
<rect width="324" height="330" fill="white"/>
</clipPath>
</defs>
</svg>
