<svg width="52" height="69" viewBox="0 0 52 69" fill="none" xmlns="http://www.w3.org/2000/svg">
<path d="M25.6792 0C11.5195 0 0 10.7433 0 23.9473C0 36.6572 23.2992 66.3522 24.2913 67.6096L25.2172 68.7846C25.3254 68.9227 25.4978 69.0034 25.6792 69.0034C25.8634 69.0034 26.0347 68.9227 26.1441 68.7846L27.0694 67.6096C28.0621 66.3522 51.3607 36.6572 51.3607 23.9473C51.3607 10.7433 39.8393 0 25.6792 0ZM25.6792 15.3694C30.7527 15.3694 34.8782 19.2165 34.8782 23.9473C34.8782 28.6755 30.7525 32.5251 25.6792 32.5251C20.6088 32.5251 16.4802 28.6755 16.4802 23.9473C16.4802 19.2165 20.6086 15.3694 25.6792 15.3694Z" fill="white"/>
</svg>
