<svg width="133" height="133" viewBox="0 0 133 133" fill="none" xmlns="http://www.w3.org/2000/svg">
<path fill-rule="evenodd" clip-rule="evenodd" d="M61.1869 0.170333C67.1585 0.0821855 72.2951 3.32499 76.8288 7.84748L76.8336 7.85268L84.4479 15.4667C85.3004 14.1943 86.2882 12.9864 87.4101 11.864C96.7234 2.55081 111.823 2.55081 121.137 11.864C130.45 21.1772 130.45 36.2768 121.137 45.5901C120.014 46.7124 118.806 47.7001 117.534 48.5526L125.148 56.1664L125.152 56.1718C129.675 60.7049 132.917 65.8415 132.83 71.8131C132.742 77.7388 129.394 82.6899 125.139 86.9142C125.137 86.9166 125.134 86.9197 125.131 86.9221L117.423 94.63C114.543 97.5101 110.773 97.2062 108.497 96.2456C106.244 95.294 103.839 93.1081 103.292 89.7653C102.908 87.4211 101.817 85.1773 100.002 83.3623C95.4075 78.7682 87.9587 78.7682 83.3646 83.3623C78.77 87.957 78.77 95.4058 83.3646 99.9999C85.179 101.815 87.4228 102.907 89.767 103.29C93.1098 103.838 95.2963 106.242 96.2473 108.495C97.2079 110.771 97.5124 114.541 94.6324 117.421L86.9026 125.151C86.9002 125.153 86.8978 125.156 86.8948 125.159C82.6777 129.406 77.732 132.747 71.813 132.835C65.8486 132.922 60.7175 129.687 56.1916 125.172L56.1862 125.166L48.5532 117.533C47.7007 118.806 46.7132 120.013 45.591 121.135C36.2779 130.449 21.1782 130.449 11.865 121.135C2.55185 111.822 2.55185 96.7223 11.865 87.409C12.9872 86.2871 14.1948 85.2993 15.467 84.4474L7.85311 76.8331L7.84791 76.8283C3.32542 72.2946 0.0827378 67.158 0.170946 61.1864C0.25843 55.2607 3.60672 50.3101 7.86096 46.0857C7.86368 46.083 7.86646 46.0802 7.86918 46.0775L15.5786 38.368C18.459 35.4876 22.2296 35.7921 24.5053 36.7529C26.7584 37.7041 29.1626 39.8903 29.7099 43.2335C30.0937 45.5778 31.1851 47.8217 33 49.6367C37.5944 54.231 45.0433 54.231 49.6376 49.6367C54.232 45.0423 54.232 37.5934 49.6377 32.999C47.8228 31.1841 45.5788 30.0927 43.2345 29.7089C39.8913 29.1616 37.7052 26.7574 36.7539 24.5042C35.7931 22.2285 35.4886 18.458 38.369 15.5776L46.0778 7.86887C46.0806 7.86603 46.0834 7.86319 46.0862 7.86041C50.3106 3.60605 55.2612 0.257756 61.1869 0.170333ZM61.3651 12.2523C60.1296 12.2706 58.0434 12.966 54.654 16.3807L54.6383 16.3969L51.3555 19.6795C53.8293 20.8266 56.1463 22.4193 58.1818 24.4548C67.495 33.768 67.495 48.8677 58.1818 58.1807C48.8687 67.4939 33.769 67.4939 24.4558 58.1807C22.4203 56.1452 20.8276 53.8282 19.6805 51.3545L16.3973 54.6378L16.3812 54.6535C12.9667 58.0429 12.2712 60.1291 12.253 61.3652C12.2353 62.5585 12.8288 64.7111 16.4008 68.2926C16.4003 68.292 16.4013 68.2932 16.4008 68.2926L30.4803 82.3721C32.099 83.9907 32.6638 86.385 31.9392 88.557C31.2145 90.7283 29.3249 92.3034 27.0585 92.626C24.6248 92.9716 22.2868 94.076 20.4092 95.9538C15.8149 100.548 15.8149 107.997 20.4093 112.591C25.0036 117.185 32.4525 117.185 37.0469 112.591C38.9244 110.714 40.0286 108.375 40.3746 105.942C40.6968 103.676 42.2722 101.786 44.4437 101.061C46.6151 100.336 49.0096 100.901 50.6282 102.52L64.7255 116.617C64.7273 116.619 64.7285 116.62 64.7303 116.622C64.7297 116.622 64.7303 116.622 64.7303 116.622C68.2967 120.178 70.4445 120.77 71.6347 120.752C72.8672 120.734 74.9498 120.041 78.3265 116.639L78.3422 116.622L81.6458 113.319C79.1723 112.172 76.8553 110.579 74.8205 108.545C65.5073 99.2314 65.5073 84.1314 74.8205 74.8182C84.1331 65.505 99.2331 65.505 108.546 74.8182C110.582 76.8536 112.174 79.1706 113.321 81.6435L116.603 78.3616L116.619 78.3459C120.034 74.9572 120.729 72.8704 120.747 71.6349C120.765 70.4416 120.172 68.289 116.602 64.7093C116.6 64.7081 116.603 64.7105 116.602 64.7093L102.52 50.6274C100.901 49.0086 100.336 46.6141 101.061 44.4426C101.786 42.2711 103.676 40.6958 105.942 40.3737C108.376 40.0278 110.715 38.9235 112.592 37.0458C117.186 32.4515 117.186 25.0026 112.592 20.4082C107.998 15.8138 100.549 15.8138 95.9543 20.4082C94.0765 22.2859 92.9727 24.6242 92.6265 27.0582C92.3045 29.3246 90.7294 31.2144 88.5574 31.9391C86.3861 32.6639 83.9918 32.099 82.3732 30.4804L68.2949 16.4021C68.2937 16.4013 68.2955 16.4028 68.2949 16.4021C64.714 12.8305 62.5583 12.2347 61.3651 12.2523Z" fill="#E73434"/>
</svg>
