<svg width="86" height="77" viewBox="0 0 86 77" fill="none" xmlns="http://www.w3.org/2000/svg">
<g clip-path="url(#clip0_25_295)">
<path d="M15.9253 3.26298C10.0162 6.69429 8.85532 17.42 11.0863 26.1618C12.8238 32.9693 16.5177 42.1012 22.7467 50.7002C28.6064 58.7897 36.7816 66.0434 43.0153 70.2402C51.0202 75.629 62.4315 79.0543 68.3406 75.623C71.3286 73.8879 75.7679 69.1475 75.9704 68.2968C75.9704 68.2968 73.3672 64.7031 72.796 63.9145L64.0663 51.8629C63.4176 50.9673 59.3494 51.7859 57.2827 52.834C54.495 54.2483 51.9276 58.0429 51.9276 58.0429C50.0161 59.0317 48.415 58.0465 45.0697 56.668C40.9583 54.9743 36.3358 49.7119 32.6568 44.9455C29.2966 39.9942 25.8151 34.069 25.7647 30.0172C25.7232 26.7203 25.3715 25.0098 27.1595 23.8503C27.1595 23.8503 32.0763 23.2989 34.6555 21.5968C36.5671 20.3347 39.061 17.3428 38.4123 16.4471L29.6826 4.39572C29.1113 3.60707 26.5082 0.0133366 26.5082 0.0133366C25.558 -0.167884 18.9133 1.52792 15.9253 3.26298Z" fill="white"/>
</g>
<defs>
<clipPath id="clip0_25_295">
<rect width="86" height="77" fill="white"/>
</clipPath>
</defs>
</svg>
