<svg width="427" height="172" viewBox="0 0 427 172" fill="none" xmlns="http://www.w3.org/2000/svg">
<path d="M390 146V139C390 127.402 380.598 118 369 118C357.402 118 348 127.402 348 139V146C348 157.598 357.402 167 369 167C380.598 167 390 157.598 390 146Z" stroke="#E73434" stroke-width="9"/>
<path d="M293 146.5V138.5C293 127.178 283.822 118 272.5 118C261.178 118 252 127.178 252 138.5V146.5C252 157.822 261.178 167 272.5 167C283.822 167 293 157.822 293 146.5Z" stroke="#E73434" stroke-width="9"/>
<path d="M173 146.5V138.5C173 127.178 163.822 118 152.5 118C141.178 118 132 127.178 132 138.5V146.5C132 157.822 141.178 167 152.5 167C163.822 167 173 157.822 173 146.5Z" stroke="#E73434" stroke-width="9"/>
<path d="M125 146V139C125 127.402 115.598 118 104 118C92.402 118 83 127.402 83 139V146C83 157.598 92.402 167 104 167C115.598 167 125 157.598 125 146Z" stroke="#E73434" stroke-width="9"/>
<path d="M75 146.5V138.5C75 127.178 65.8218 118 54.5 118C43.1782 118 34 127.178 34 138.5V146.5C34 157.822 43.1782 167 54.5 167C65.8218 167 75 157.822 75 146.5Z" stroke="#E73434" stroke-width="9"/>
<path d="M63 144.5V140.5C63 135.806 59.1944 132 54.5 132C49.8056 132 46 135.806 46 140.5V144.5C46 149.194 49.8056 153 54.5 153C59.1944 153 63 149.194 63 144.5Z" stroke="#E73434" stroke-width="9"/>
<path d="M113 144V141C113 136.029 108.971 132 104 132C99.0294 132 95 136.029 95 141V144C95 148.971 99.0294 153 104 153C108.971 153 113 148.971 113 144Z" stroke="#E73434" stroke-width="9"/>
<path d="M161 144V141C161 136.029 156.971 132 152 132C147.029 132 143 136.029 143 141V144C143 148.971 147.029 153 152 153C156.971 153 161 148.971 161 144Z" stroke="#E73434" stroke-width="9"/>
<path d="M281 144.5V140.5C281 135.806 277.194 132 272.5 132C267.806 132 264 135.806 264 140.5V144.5C264 149.194 267.806 153 272.5 153C277.194 153 281 149.194 281 144.5Z" stroke="#E73434" stroke-width="9"/>
<path d="M378 144V141C378 136.029 373.971 132 369 132C364.029 132 360 136.029 360 141V144C360 148.971 364.029 153 369 153C373.971 153 378 148.971 378 144Z" stroke="#E73434" stroke-width="9"/>
<path d="M37.9645 117H5V5H337V117H290.496" stroke="#E73434" stroke-width="9"/>
<path d="M337 97H5" stroke="#E73434" stroke-width="9"/>
<path d="M21 117V143" stroke="#E73434" stroke-width="9"/>
<path d="M169 116H255" stroke="#E73434" stroke-width="9"/>
<path d="M228 117V133H236" stroke="#E73434" stroke-width="9"/>
<path d="M228 133H198V117" stroke="#E73434" stroke-width="9"/>
<path d="M198 133H189" stroke="#E73434" stroke-width="9"/>
<path d="M189 153H236" stroke="#E73434" stroke-width="9"/>
<path d="M301 152.279V132.721L305.136 128H336.455L340 132.721V152.279L336.455 157H305.136L301 152.279Z" stroke="#E73434" stroke-width="9"/>
<path d="M353 115.484V45.3158L357.128 41.1474V21L367.154 22.3895L376.59 25.8632L383.077 29.3368L387.795 32.8105L391.923 36.9789L396.051 41.1474H409.615L416.692 45.3158L420.821 51.5684L422 56.4316V149.526L419.051 153H395.462" stroke="#E73434" stroke-width="9"/>
<path d="M385 104H393" stroke="#E73434" stroke-width="9"/>
<path d="M421 114V114C418.492 115.765 417 118.639 417 121.706V123.148V133" stroke="#E73434" stroke-width="9"/>
<path d="M394 41H396" stroke="#E73434" stroke-width="9"/>
<path d="M358 41H394" stroke="#E73434" stroke-width="9"/>
<path d="M421.412 58H382V84.9167L387.882 92H422" stroke="#E73434" stroke-width="9"/>
<path d="M421 133H395" stroke="#E73434" stroke-width="9"/>
</svg>
